<svg width="136" height="24" viewBox="0 0 136 24" fill="none" xmlns="http://www.w3.org/2000/svg">
<path fill-rule="evenodd" clip-rule="evenodd" d="M66.9999 12.5C66.9999 15.84 64.5699 18 61.1199 18C57.6699 18 55.2399 15.84 55.2399 12.5C55.2399 9.16 57.6699 7 61.1199 7C64.5699 7 66.9999 9.16 66.9999 12.5ZM57.7799 12.5C57.7799 14.57 59.1299 16 61.1199 16C63.1099 16 64.4599 14.57 64.4599 12.5C64.4599 10.43 63.1099 9.05 61.1199 9.05C59.1299 9.05 57.7799 10.43 57.7799 12.5ZM40.7499 12.29C41.6999 11.85 42.3099 11.11 42.3099 9.96C42.3099 8.23 40.7299 7 38.4399 7H33.1699V18H38.6699C41.0399 18 42.6899 16.71 42.6899 14.95C42.6899 13.62 41.8199 12.63 40.7499 12.29ZM35.5999 9.01H38.4299C39.2799 9.01 39.8699 9.51 39.8699 10.21C39.8699 10.91 39.2699 11.41 38.4299 11.41H35.5999V9V9.01ZM38.6699 16H35.6099V13.3H38.6699C39.6299 13.3 40.2599 13.85 40.2599 14.66C40.2599 15.46 39.6299 15.99 38.6699 15.99V16ZM51.8399 18H55.0299L49.9699 12.29L54.6099 7H51.7099L48.0299 11.27H47.4299V7H44.9999V18H47.4399V13.62H48.0299L51.8299 18H51.8399ZM76.4699 7V11.34H71.5399V7H69.0999V18H71.5299V13.56H76.4599V18H78.8899V7H76.4599H76.4699ZM86.8999 18H84.4599V9.22H80.6599V7H90.6999V9.22H86.8999V18ZM96.5999 7C94.4599 7 92.5799 7.89 92.0299 9.8L94.2699 10.17C94.482 9.77587 94.8009 9.44952 95.19 9.22841C95.5792 9.00731 96.0228 8.90042 96.4699 8.92C97.7999 8.92 98.5899 9.82 98.6899 11.25H96.3199C93.0899 11.25 91.4799 12.67 91.4799 14.7C91.4799 16.75 93.0699 18 95.3099 18C97.1099 18 98.3099 17.18 98.8399 16.27L99.3399 18H101.14V11.82C101.14 8.63 99.4099 7 96.5999 7V7ZM95.8799 16.16C94.6899 16.16 93.9299 15.55 93.9299 14.59C93.9299 13.75 94.5499 13.16 96.4099 13.16H98.7099C98.7099 14.96 97.5699 16.16 95.8799 16.16ZM113.73 18H110.53L106.73 13.62H106.13V18H103.71V7H106.14V11.27H106.73L110.4 7H113.3L108.67 12.29L113.72 18H113.73ZM118 18H120.44V9.22H124.24V7H114.2V9.22H118V18ZM130.3 7C133.63 7 136 9.2 136 12.37C136 12.67 135.98 12.92 135.96 13.16H127.12C127.35 14.85 128.58 15.99 130.44 15.99C131.73 15.99 132.74 15.44 133.27 14.66L135.56 15.04C134.73 17.14 132.58 18 130.29 18C126.95 18 124.58 15.82 124.58 12.5C124.58 9.18 126.95 7 130.29 7H130.3ZM133.36 11.25C133.177 10.5834 132.775 9.99815 132.217 9.58959C131.66 9.18104 130.981 8.97323 130.29 9C129.605 8.97381 128.932 9.18275 128.383 9.59208C127.833 10.0014 127.441 10.5865 127.27 11.25H133.36V11.25Z" fill="black"/>
<path d="M11.5 24H12.5C17.94 24 20.65 24 22.33 22.32C24 20.64 24 17.92 24 12.5V11.48C24 6.08 24 3.36 22.33 1.68C20.65 0 17.93 0 12.5 0H11.5C6.06 0 3.35 0 1.67 1.68C0 3.36 0 6.08 0 11.5V12.52C0 17.92 0 20.64 1.68 22.32C3.36 24 6.08 24 11.5 24Z" fill="#0077FF"/>
<path d="M12.7698 17.2898C7.29981 17.2898 4.1798 13.5398 4.0498 7.2998H6.7898C6.8798 11.8798 8.8998 13.8198 10.4998 14.2198V7.2998H13.0798V11.2498C14.6598 11.0798 16.3198 9.2798 16.8798 7.2998H19.4598C19.2488 8.32669 18.8281 9.29898 18.2242 10.1559C17.6202 11.0128 16.846 11.7358 15.9498 12.2798C16.9501 12.7769 17.8337 13.4804 18.5421 14.344C19.2506 15.2076 19.7679 16.2116 20.0598 17.2898H17.2198C16.9577 16.3533 16.4251 15.515 15.6886 14.8799C14.9522 14.2449 14.0446 13.8413 13.0798 13.7198V17.2898H12.7698V17.2898Z" fill="white"/>
</svg>
